<mxfile host="app.diagrams.net" modified="2024-05-23T23:59:49.951Z" agent="Mozilla/5.0 (Windows NT 10.0; Win64; x64) AppleWebKit/537.36 (KHTML, like Gecko) Chrome/125.0.0.0 Safari/537.36" etag="CbQa7IMiNw02F_7P3cXG" version="24.2.1" type="github">
  <diagram name="Página-1" id="4vIXYa6SFfBtht6YiKSe">
    <mxGraphModel dx="819" dy="441" grid="1" gridSize="10" guides="1" tooltips="1" connect="1" arrows="1" fold="1" page="1" pageScale="1" pageWidth="827" pageHeight="1169" math="0" shadow="0">
      <root>
        <mxCell id="0" />
        <mxCell id="1" parent="0" />
        <mxCell id="-xtAZJZc0LSrTzCeKRAl-12" value="" style="rounded=0;whiteSpace=wrap;html=1;dashed=1;fillColor=none;" parent="1" vertex="1">
          <mxGeometry x="119" y="277.5" width="590" height="230" as="geometry" />
        </mxCell>
        <mxCell id="-xtAZJZc0LSrTzCeKRAl-11" value="" style="rounded=0;whiteSpace=wrap;html=1;dashed=1;fillColor=none;" parent="1" vertex="1">
          <mxGeometry x="119" y="60" width="590" height="180" as="geometry" />
        </mxCell>
        <mxCell id="-xtAZJZc0LSrTzCeKRAl-1" value="Sensor de posição do Carro (GPS)" style="rounded=0;whiteSpace=wrap;html=1;" parent="1" vertex="1">
          <mxGeometry x="565.5" y="300" width="131.5" height="37.5" as="geometry" />
        </mxCell>
        <mxCell id="-xtAZJZc0LSrTzCeKRAl-4" value="Sensor de velocidade do Carro via porta OBD2" style="rounded=0;whiteSpace=wrap;html=1;" parent="1" vertex="1">
          <mxGeometry x="358.5" y="450" width="135" height="42.5" as="geometry" />
        </mxCell>
        <mxCell id="-xtAZJZc0LSrTzCeKRAl-5" value="Display de informações/velocidade sugerida" style="rounded=0;whiteSpace=wrap;html=1;" parent="1" vertex="1">
          <mxGeometry x="565.5" y="430" width="131.5" height="47.5" as="geometry" />
        </mxCell>
        <mxCell id="-xtAZJZc0LSrTzCeKRAl-6" value="Reprodutor som para aviso sonoro" style="rounded=0;whiteSpace=wrap;html=1;" parent="1" vertex="1">
          <mxGeometry x="169" y="392.5" width="150" height="70" as="geometry" />
        </mxCell>
        <mxCell id="-xtAZJZc0LSrTzCeKRAl-7" value="Antena para comunicação com as torres (módulos&amp;nbsp;fixos)" style="rounded=0;whiteSpace=wrap;html=1;" parent="1" vertex="1">
          <mxGeometry x="139" y="300" width="180" height="70" as="geometry" />
        </mxCell>
        <mxCell id="-xtAZJZc0LSrTzCeKRAl-8" value="Antena para comunicação com outras torres (módulos&amp;nbsp;fixos) e com os módulos móveis" style="rounded=0;whiteSpace=wrap;html=1;" parent="1" vertex="1">
          <mxGeometry x="150" y="115" width="180" height="70" as="geometry" />
        </mxCell>
        <mxCell id="-xtAZJZc0LSrTzCeKRAl-18" style="edgeStyle=orthogonalEdgeStyle;rounded=0;orthogonalLoop=1;jettySize=auto;html=1;exitX=0;exitY=0.5;exitDx=0;exitDy=0;entryX=1;entryY=0.5;entryDx=0;entryDy=0;" parent="1" source="-xtAZJZc0LSrTzCeKRAl-9" target="-xtAZJZc0LSrTzCeKRAl-8" edge="1">
          <mxGeometry relative="1" as="geometry" />
        </mxCell>
        <mxCell id="aA2EzFWBV2ysu7jN6fN9-4" style="edgeStyle=orthogonalEdgeStyle;rounded=0;orthogonalLoop=1;jettySize=auto;html=1;exitX=0.5;exitY=0;exitDx=0;exitDy=0;entryX=0.5;entryY=1;entryDx=0;entryDy=0;" edge="1" parent="1" source="-xtAZJZc0LSrTzCeKRAl-9" target="aA2EzFWBV2ysu7jN6fN9-2">
          <mxGeometry relative="1" as="geometry" />
        </mxCell>
        <mxCell id="aA2EzFWBV2ysu7jN6fN9-5" style="edgeStyle=orthogonalEdgeStyle;rounded=0;orthogonalLoop=1;jettySize=auto;html=1;exitX=0.5;exitY=0;exitDx=0;exitDy=0;entryX=0.5;entryY=1;entryDx=0;entryDy=0;" edge="1" parent="1" source="-xtAZJZc0LSrTzCeKRAl-9" target="aA2EzFWBV2ysu7jN6fN9-1">
          <mxGeometry relative="1" as="geometry" />
        </mxCell>
        <mxCell id="aA2EzFWBV2ysu7jN6fN9-6" style="edgeStyle=orthogonalEdgeStyle;rounded=0;orthogonalLoop=1;jettySize=auto;html=1;exitX=0.5;exitY=0;exitDx=0;exitDy=0;entryX=0.5;entryY=1;entryDx=0;entryDy=0;" edge="1" parent="1" source="-xtAZJZc0LSrTzCeKRAl-9" target="aA2EzFWBV2ysu7jN6fN9-3">
          <mxGeometry relative="1" as="geometry" />
        </mxCell>
        <mxCell id="-xtAZJZc0LSrTzCeKRAl-9" value="Unidade processadora/controladora" style="rounded=0;whiteSpace=wrap;html=1;" parent="1" vertex="1">
          <mxGeometry x="440" y="165" width="160" height="45" as="geometry" />
        </mxCell>
        <mxCell id="-xtAZJZc0LSrTzCeKRAl-19" style="edgeStyle=orthogonalEdgeStyle;rounded=0;orthogonalLoop=1;jettySize=auto;html=1;exitX=0;exitY=0.5;exitDx=0;exitDy=0;entryX=1;entryY=0.5;entryDx=0;entryDy=0;" parent="1" source="-xtAZJZc0LSrTzCeKRAl-10" target="-xtAZJZc0LSrTzCeKRAl-7" edge="1">
          <mxGeometry relative="1" as="geometry" />
        </mxCell>
        <mxCell id="aA2EzFWBV2ysu7jN6fN9-8" style="edgeStyle=orthogonalEdgeStyle;rounded=0;orthogonalLoop=1;jettySize=auto;html=1;exitX=1;exitY=0.5;exitDx=0;exitDy=0;entryX=0;entryY=0.5;entryDx=0;entryDy=0;" edge="1" parent="1" source="-xtAZJZc0LSrTzCeKRAl-10" target="aA2EzFWBV2ysu7jN6fN9-7">
          <mxGeometry relative="1" as="geometry" />
        </mxCell>
        <mxCell id="aA2EzFWBV2ysu7jN6fN9-9" style="edgeStyle=orthogonalEdgeStyle;rounded=0;orthogonalLoop=1;jettySize=auto;html=1;exitX=1;exitY=0.5;exitDx=0;exitDy=0;entryX=0;entryY=0.5;entryDx=0;entryDy=0;" edge="1" parent="1" source="-xtAZJZc0LSrTzCeKRAl-10" target="-xtAZJZc0LSrTzCeKRAl-1">
          <mxGeometry relative="1" as="geometry" />
        </mxCell>
        <mxCell id="aA2EzFWBV2ysu7jN6fN9-10" value="barramento I2C" style="edgeStyle=orthogonalEdgeStyle;rounded=0;orthogonalLoop=1;jettySize=auto;html=1;exitX=1;exitY=0.5;exitDx=0;exitDy=0;entryX=0;entryY=0.5;entryDx=0;entryDy=0;" edge="1" parent="1" source="-xtAZJZc0LSrTzCeKRAl-10" target="-xtAZJZc0LSrTzCeKRAl-5">
          <mxGeometry x="-0.5034" y="13" relative="1" as="geometry">
            <mxPoint as="offset" />
          </mxGeometry>
        </mxCell>
        <mxCell id="aA2EzFWBV2ysu7jN6fN9-13" value="UART" style="edgeStyle=orthogonalEdgeStyle;rounded=0;orthogonalLoop=1;jettySize=auto;html=1;exitX=0.5;exitY=1;exitDx=0;exitDy=0;entryX=0.5;entryY=0;entryDx=0;entryDy=0;" edge="1" parent="1" source="-xtAZJZc0LSrTzCeKRAl-10" target="aA2EzFWBV2ysu7jN6fN9-12">
          <mxGeometry relative="1" as="geometry" />
        </mxCell>
        <mxCell id="aA2EzFWBV2ysu7jN6fN9-15" style="edgeStyle=orthogonalEdgeStyle;rounded=0;orthogonalLoop=1;jettySize=auto;html=1;exitX=0;exitY=1;exitDx=0;exitDy=0;entryX=1;entryY=0.25;entryDx=0;entryDy=0;" edge="1" parent="1" source="-xtAZJZc0LSrTzCeKRAl-10" target="-xtAZJZc0LSrTzCeKRAl-6">
          <mxGeometry relative="1" as="geometry" />
        </mxCell>
        <mxCell id="aA2EzFWBV2ysu7jN6fN9-16" value="GPIO" style="edgeLabel;html=1;align=center;verticalAlign=middle;resizable=0;points=[];" vertex="1" connectable="0" parent="aA2EzFWBV2ysu7jN6fN9-15">
          <mxGeometry x="0.4045" relative="1" as="geometry">
            <mxPoint y="-38" as="offset" />
          </mxGeometry>
        </mxCell>
        <mxCell id="-xtAZJZc0LSrTzCeKRAl-10" value="Unidade processadora/controladora" style="rounded=0;whiteSpace=wrap;html=1;" parent="1" vertex="1">
          <mxGeometry x="348" y="312.5" width="160" height="45" as="geometry" />
        </mxCell>
        <mxCell id="-xtAZJZc0LSrTzCeKRAl-13" value="Módulo fixo" style="text;html=1;align=center;verticalAlign=middle;resizable=0;points=[];autosize=1;strokeColor=none;fillColor=none;" parent="1" vertex="1">
          <mxGeometry x="119" y="210" width="80" height="30" as="geometry" />
        </mxCell>
        <mxCell id="-xtAZJZc0LSrTzCeKRAl-15" value="Módulo móvel" style="text;html=1;align=center;verticalAlign=middle;resizable=0;points=[];autosize=1;strokeColor=none;fillColor=none;" parent="1" vertex="1">
          <mxGeometry x="119" y="477.5" width="100" height="30" as="geometry" />
        </mxCell>
        <mxCell id="aA2EzFWBV2ysu7jN6fN9-1" value="Memória de programa" style="rounded=0;whiteSpace=wrap;html=1;" vertex="1" parent="1">
          <mxGeometry x="368.5" y="72.5" width="91" height="42.5" as="geometry" />
        </mxCell>
        <mxCell id="aA2EzFWBV2ysu7jN6fN9-2" value="Memória RAM" style="rounded=0;whiteSpace=wrap;html=1;" vertex="1" parent="1">
          <mxGeometry x="474.5" y="72.5" width="91" height="42.5" as="geometry" />
        </mxCell>
        <mxCell id="aA2EzFWBV2ysu7jN6fN9-3" value="Memória de dados (mapa)" style="rounded=0;whiteSpace=wrap;html=1;" vertex="1" parent="1">
          <mxGeometry x="580" y="72.5" width="91" height="42.5" as="geometry" />
        </mxCell>
        <mxCell id="aA2EzFWBV2ysu7jN6fN9-7" value="Sensor de direção por campo magnético" style="rounded=0;whiteSpace=wrap;html=1;" vertex="1" parent="1">
          <mxGeometry x="565.5" y="372.5" width="131.5" height="40" as="geometry" />
        </mxCell>
        <mxCell id="aA2EzFWBV2ysu7jN6fN9-14" value="USB" style="edgeStyle=orthogonalEdgeStyle;rounded=0;orthogonalLoop=1;jettySize=auto;html=1;exitX=0.5;exitY=1;exitDx=0;exitDy=0;entryX=0.5;entryY=0;entryDx=0;entryDy=0;" edge="1" parent="1" source="aA2EzFWBV2ysu7jN6fN9-12" target="-xtAZJZc0LSrTzCeKRAl-4">
          <mxGeometry relative="1" as="geometry" />
        </mxCell>
        <mxCell id="aA2EzFWBV2ysu7jN6fN9-12" value="Conversor USB - UART" style="rounded=0;whiteSpace=wrap;html=1;" vertex="1" parent="1">
          <mxGeometry x="362.5" y="392.5" width="131" height="20" as="geometry" />
        </mxCell>
      </root>
    </mxGraphModel>
  </diagram>
</mxfile>
